<svg width="447" height="375" viewBox="0 0 447 375" fill="none" xmlns="http://www.w3.org/2000/svg">
<path fill-rule="evenodd" clip-rule="evenodd" d="M178.673 8.50965L178.423 6.92982C326.278 -23.2469 422.213 49.8429 442.251 135.025C444.351 143.956 445.632 153.048 446.058 162.206C445.994 165.472 445.875 168.739 445.7 172.008L445.685 172.296L445.648 172.582C444.662 180.101 443.389 187.595 441.83 195.063L441.773 195.333L441.697 195.599C439.577 202.982 437.183 210.31 434.516 217.583L434.426 217.829L434.318 218.068C431.122 225.199 427.67 232.246 423.961 239.211L423.845 239.429L423.715 239.639C419.515 246.408 415.081 253.069 410.412 259.622L410.277 259.811L410.13 259.992C405.016 266.301 399.691 272.478 394.155 278.524L394.006 278.686L393.849 278.839C387.919 284.597 381.805 290.204 375.507 295.658L375.349 295.794L375.184 295.922C368.549 301.051 361.758 306.01 354.813 310.799L354.649 310.913L354.478 311.017C347.256 315.449 339.909 319.696 332.438 323.758L332.269 323.851L332.094 323.934C324.41 327.613 316.633 331.095 308.765 334.381L308.591 334.454L308.413 334.518C300.396 337.4 292.32 340.078 284.186 342.551L284.007 342.605L283.825 342.651C275.609 344.707 267.366 346.553 259.098 348.189L258.915 348.226L258.729 348.253C250.446 349.466 242.169 350.468 233.901 351.257L233.712 351.275L233.522 351.284C225.303 351.65 217.123 351.807 208.984 351.753L208.789 351.751L208.594 351.74C200.568 351.269 192.612 350.593 184.727 349.712L184.526 349.689L184.327 349.656C176.615 348.371 169.004 346.887 161.492 345.206L161.286 345.16L161.083 345.102C153.801 343.036 146.648 340.783 139.621 338.342L139.41 338.269L139.205 338.183C132.461 335.381 125.869 332.406 119.43 329.256L119.218 329.152L119.012 329.035C112.903 325.554 106.968 321.915 101.208 318.117L100.998 317.979L100.798 317.827C95.4099 313.732 90.2151 309.497 85.2145 305.122L85.014 304.947L84.8266 304.757C80.2335 300.124 75.8501 295.37 71.6773 290.496L71.4948 290.283L71.3288 290.056C67.5925 284.967 64.0787 279.78 60.7882 274.495L60.6339 274.247L60.4993 273.987C57.6668 268.534 55.066 263.006 52.6975 257.404L52.581 257.128L52.4867 256.844C50.5895 251.124 48.9287 245.355 47.5048 239.537L47.4333 239.245L47.3854 238.948C46.437 233.063 45.7255 227.155 45.251 221.225L45.2273 220.929L45.2271 220.632C45.2232 214.687 45.452 208.744 45.9132 202.805L45.9355 202.518L45.9797 202.233C46.898 196.329 48.0404 190.453 49.4066 184.604L49.4693 184.336L49.5514 184.073C51.3532 178.307 53.367 172.592 55.5924 166.929L55.6877 166.686L55.7997 166.45C58.4324 160.914 61.2617 155.45 64.2872 150.058L64.4073 149.843L64.5413 149.638C67.9402 144.413 71.5176 139.281 75.2733 134.24L75.4114 134.054L75.5607 133.877C79.6511 129.04 83.8997 124.312 88.3062 119.693L88.457 119.535L88.6168 119.386C93.3153 115.003 98.1498 110.743 103.12 106.608L103.28 106.475L103.447 106.351C108.663 102.479 113.992 98.7435 119.432 95.1448L119.599 95.0348L119.77 94.9338C124.555 92.1226 129.402 89.4172 134.313 86.8175C135.125 77.9032 139.385 69.31 146.871 63.2071C161.639 51.1675 183.371 53.3794 195.41 68.1474C207.45 82.9155 205.238 104.647 190.47 116.687C175.702 128.727 153.97 126.515 141.931 111.747C139.63 108.925 137.85 105.85 136.579 102.636C133.541 104.303 130.528 106.013 127.541 107.765C122.441 111.143 117.446 114.645 112.554 118.272C107.913 122.138 103.398 126.116 99.009 130.205C94.915 134.503 90.9668 138.896 87.164 143.386C83.6961 148.049 80.3911 152.791 77.2485 157.612C74.4747 162.566 71.878 167.581 69.4582 172.657C67.4341 177.825 65.5985 183.034 63.9509 188.284C62.7193 193.586 61.6843 198.909 60.846 204.253C60.4374 209.609 60.2311 214.966 60.2271 220.325C60.6614 225.656 61.3012 230.969 62.1466 236.264C63.4348 241.494 64.9291 246.685 66.6302 251.838C68.7742 256.889 71.1228 261.881 73.6765 266.815C76.6687 271.607 79.8611 276.32 83.2544 280.953C87.0743 285.405 91.0868 289.757 95.2924 294.008C99.9051 298.036 104.699 301.944 109.674 305.732C115.028 309.256 120.547 312.64 126.233 315.886C132.26 318.828 138.433 321.615 144.754 324.245C151.369 326.539 158.109 328.662 164.974 330.614C172.082 332.201 179.288 333.606 186.594 334.827C194.084 335.661 201.645 336.303 209.278 336.754C217.032 336.802 224.827 336.653 232.664 336.307C240.556 335.55 248.458 334.594 256.37 333.438C264.27 331.872 272.147 330.107 280.002 328.145C287.776 325.779 295.495 323.219 303.159 320.466C310.674 317.325 318.102 313.999 325.443 310.488C332.567 306.61 339.574 302.56 346.463 298.337C353.07 293.776 359.531 289.058 365.845 284.182C371.818 279.005 377.616 273.688 383.241 268.231C388.469 262.515 393.499 256.681 398.331 250.727C402.719 244.561 406.887 238.3 410.837 231.942C414.302 225.424 417.531 218.833 420.523 212.172C422.999 205.402 425.226 198.587 427.203 191.726C428.64 184.81 429.818 177.874 430.737 170.919C431.101 163.961 431.201 157.011 431.035 150.066C430.307 143.17 429.311 136.306 428.048 129.475C426.22 122.742 424.126 116.068 421.765 109.453C418.842 102.984 415.658 96.6012 412.212 90.3025C408.215 84.2021 403.965 78.2123 399.46 72.3331C394.425 66.7037 389.149 61.2103 383.631 55.853C377.613 50.7967 371.37 45.9006 364.902 41.165C357.975 36.7794 350.844 32.5765 343.509 28.5565C335.767 24.9313 327.846 21.5087 319.747 18.2891C311.299 15.5028 302.703 12.9362 293.959 10.5893C284.933 8.70788 275.792 7.05923 266.535 5.64377C257.071 4.71737 247.527 4.03339 237.903 3.59205C228.15 3.65509 218.355 3.96589 208.519 4.52466C198.573 5.60091 188.624 6.92918 178.673 8.50965ZM262.922 311.495C250.883 326.263 229.151 328.475 214.383 316.435C199.615 304.395 197.403 282.663 209.443 267.895C221.482 253.127 243.214 250.915 257.982 262.955C265.432 269.028 269.686 277.568 270.528 286.436C275.182 285.063 279.815 283.597 284.429 282.039C290.204 279.753 295.921 277.322 301.581 274.746C307.091 271.881 312.519 268.88 317.866 265.741C323.011 262.334 328.051 258.801 332.986 255.142C337.671 251.24 342.229 247.224 346.659 243.096C350.795 238.755 354.783 234.317 358.624 229.78C362.131 225.067 365.472 220.274 368.648 215.399C371.456 210.386 374.084 205.311 376.532 200.174C378.583 194.94 380.443 189.663 382.11 184.344C383.36 178.97 384.409 173.573 385.258 168.154C385.674 162.72 385.883 157.285 385.886 151.848C385.447 146.437 384.797 141.045 383.938 135.672C382.632 130.364 381.115 125.095 379.388 119.867C377.214 114.742 374.832 109.679 372.241 104.676C369.209 99.8182 365.974 95.042 362.535 90.3475C358.668 85.8397 354.606 81.4344 350.348 77.1316C345.685 73.0574 340.837 69.1056 335.806 65.2766C330.399 61.7168 324.824 58.2983 319.081 55.0214C313 52.0513 306.771 49.2393 300.393 46.5859C293.723 44.2726 286.928 42.1321 280.007 40.1648C272.846 38.5652 265.586 37.1504 258.225 35.9205C250.683 35.08 243.069 34.433 235.384 33.9798C227.579 33.9307 219.732 34.0806 211.844 34.4299C203.902 35.1908 195.95 36.153 187.988 37.3166C180.04 38.8922 172.114 40.6676 164.21 42.6429C156.388 45.0232 148.622 47.5984 140.91 50.3685C133.349 53.5291 125.874 56.876 118.487 60.4095C111.317 64.3115 104.265 68.3881 97.3317 72.6393C90.6787 77.2303 84.174 81.9807 77.8174 86.8906C71.8012 92.1048 65.9607 97.4603 60.2957 102.957C55.026 108.717 49.9565 114.597 45.0871 120.598C40.6614 126.816 36.4575 133.13 32.4749 139.543C28.977 146.121 25.7185 152.772 22.6992 159.496C20.1973 166.333 17.9487 173.217 15.9532 180.147C14.4992 187.137 13.3085 194.147 12.381 201.177C12.011 208.213 11.9105 215.242 12.0794 222.265C12.8146 229.24 13.8217 236.183 15.1009 243.092C16.9483 249.902 19.0667 256.653 21.4562 263.343C24.4091 269.883 27.6282 276.337 31.114 282.704C35.1506 288.868 39.4447 294.92 43.9968 300.858C49.0785 306.542 54.4046 312.088 59.9758 317.495C66.0454 322.596 72.3419 327.534 78.866 332.309C85.8469 336.73 93.033 340.966 100.425 345.016C108.222 348.667 116.198 352.114 124.354 355.355C132.856 358.16 141.506 360.743 150.307 363.104C159.386 364.998 168.581 366.656 177.891 368.079C187.408 369.011 197.004 369.699 206.68 370.142C216.484 370.079 226.33 369.767 236.217 369.205C246.201 368.125 256.187 366.792 266.175 365.206L266.648 368.186C167.816 387.449 91.3623 362.431 44.369 318.857C41.1271 315.517 37.9697 312.126 34.897 308.684L34.749 308.518L34.6136 308.342C29.7816 302.048 25.2244 295.625 20.9426 289.075L20.8158 288.881L20.7043 288.678C16.9878 281.903 13.5586 275.028 10.4172 268.055L10.3193 267.838L10.239 267.613C7.68242 260.475 5.42057 253.267 3.45383 245.991L3.39112 245.759L3.34717 245.523C1.97431 238.144 0.898403 230.728 0.119545 223.276L0.0948275 223.039L0.0889066 222.801C-0.097724 215.309 0.00943439 207.81 0.410272 200.306L0.422601 200.075L0.452649 199.846C1.43358 192.365 2.70002 184.909 4.25171 177.478L4.29696 177.261L4.35805 177.048C6.46797 169.7 8.85044 162.407 11.5051 155.168L11.5773 154.971L11.6632 154.779C14.8455 147.68 18.2832 140.663 21.9759 133.728L22.0688 133.554L22.1731 133.386C26.3551 126.644 30.7717 120.009 35.4226 113.483L35.5306 113.331L35.6479 113.186C40.743 106.901 46.0486 100.747 51.5645 94.7233L51.6832 94.5937L51.8094 94.4712C57.7185 88.7325 63.8114 83.1455 70.0879 77.71L70.2141 77.6007L70.3462 77.4986C76.9599 72.3861 83.7284 67.4431 90.6513 62.6694L90.783 62.5787L90.9193 62.495C98.1194 58.0769 105.443 53.843 112.891 49.7933L113.027 49.7194L113.166 49.6526C120.828 45.9848 128.581 42.5129 136.426 39.237L136.565 39.1787L136.708 39.1275C144.701 36.2534 152.753 33.5835 160.863 31.1181L161.007 31.0746L161.152 31.0383C169.344 28.988 177.562 27.1471 185.806 25.5158L185.953 25.4867L186.101 25.4649C194.36 24.2554 202.611 23.2569 210.855 22.4697L211.006 22.4553L211.158 22.4485C219.352 22.0831 227.505 21.9272 235.619 21.9811L235.775 21.9821L235.931 21.9912C243.931 22.4603 251.861 23.134 259.72 24.0128L259.88 24.0307L260.039 24.0573C267.724 25.3384 275.309 26.8163 282.793 28.4914L282.958 28.5283L283.121 28.5745C290.375 30.633 297.501 32.8778 304.5 35.3089L304.668 35.3674L304.833 35.4359C311.549 38.226 318.113 41.1889 324.524 44.3249L324.694 44.408L324.858 44.5016C330.94 47.967 336.847 51.5892 342.579 55.3687L342.747 55.4793L342.907 55.6009C348.268 59.6753 353.437 63.8885 358.411 68.2408L358.571 68.3811L358.721 68.5324C363.289 73.1408 367.648 77.8678 371.796 82.7136L371.942 82.8841L372.075 83.065C375.789 88.1241 379.281 93.2798 382.551 98.5321L382.675 98.7304L382.782 98.9378C385.597 104.357 388.181 109.849 390.534 115.414L390.627 115.634L390.702 115.862C392.587 121.544 394.237 127.275 395.651 133.053L395.708 133.287L395.747 133.525C396.689 139.37 397.395 145.238 397.867 151.128L397.886 151.365L397.886 151.603C397.89 157.509 397.662 163.412 397.204 169.313L397.186 169.542L397.151 169.77C396.239 175.637 395.103 181.476 393.746 187.289L393.695 187.503L393.63 187.714C391.839 193.445 389.837 199.126 387.624 204.757L387.548 204.951L387.459 205.139C384.841 210.645 382.027 216.079 379.018 221.442L378.921 221.614L378.814 221.778C375.433 226.976 371.874 232.082 368.137 237.098L368.026 237.246L367.907 237.388C363.836 242.202 359.607 246.908 355.221 251.505L355.101 251.632L354.973 251.751C350.295 256.115 345.482 260.356 340.533 264.473L340.406 264.579L340.272 264.678C335.078 268.534 329.771 272.254 324.353 275.838L324.22 275.926L324.083 276.007C318.467 279.306 312.764 282.46 306.974 285.466L306.837 285.538L306.697 285.602C300.76 288.307 294.761 290.857 288.701 293.254L288.56 293.31L288.417 293.358C282.261 295.44 276.07 297.363 269.842 299.126L269.698 299.167L269.551 299.201L269.343 299.248C268.092 303.596 265.961 307.767 262.922 311.495ZM108.473 227C109.079 227.347 109.773 227.52 110.553 227.52C112.633 227.52 114.713 227.433 116.793 227.26C118.873 227.173 120.909 227.087 122.903 227C124.896 226.913 126.846 226.87 128.753 226.87C130.573 226.87 132.436 226.913 134.343 227C136.336 227.087 138.373 227.173 140.453 227.26C142.533 227.347 144.613 227.39 146.693 227.39C147.559 227.39 148.253 227.26 148.773 227C149.293 226.74 149.553 226.307 149.553 225.7C149.553 225.007 149.249 224.487 148.643 224.14C148.123 223.793 147.299 223.49 146.173 223.23C142.879 222.363 140.496 221.323 139.023 220.11C137.636 218.897 136.943 216.947 136.943 214.26V155.5C136.943 152.727 137.549 150.733 138.763 149.52C139.976 148.307 142.316 147.267 145.783 146.4C146.823 146.14 147.603 145.837 148.123 145.49C148.729 145.057 149.033 144.493 149.033 143.8C149.033 143.193 148.773 142.76 148.253 142.5C147.733 142.153 147.039 141.98 146.173 141.98C144.093 141.98 142.056 142.023 140.063 142.11C138.069 142.197 136.119 142.283 134.213 142.37C132.393 142.457 130.573 142.5 128.753 142.5C126.846 142.5 124.939 142.457 123.033 142.37C121.213 142.283 119.306 142.197 117.313 142.11C115.319 142.023 113.283 141.98 111.203 141.98C110.423 141.98 109.729 142.153 109.123 142.5C108.516 142.76 108.213 143.15 108.213 143.67C108.213 145.057 109.296 145.967 111.463 146.4C114.843 147.093 117.139 148.047 118.353 149.26C119.566 150.473 120.173 152.51 120.173 155.37V214.39C120.173 217.163 119.436 219.157 117.963 220.37C116.489 221.583 114.106 222.537 110.813 223.23C108.646 223.663 107.563 224.53 107.563 225.83C107.563 226.35 107.866 226.74 108.473 227ZM189.261 225.7C194.721 227.78 200.527 228.82 206.681 228.82C211.014 228.82 214.914 228.43 218.381 227.65C221.934 226.87 225.011 225.96 227.611 224.92C230.297 223.793 232.507 222.797 234.241 221.93C235.974 221.063 237.144 220.587 237.751 220.5C238.704 220.327 239.311 219.98 239.571 219.46C239.917 218.853 240.091 218.29 240.091 217.77C240.091 217.337 239.917 216.903 239.571 216.47C239.311 216.037 239.007 215.603 238.661 215.17C238.314 214.737 237.967 214.347 237.621 214C237.361 213.653 237.231 213.263 237.231 212.83V208.8C237.231 207.153 237.274 205.593 237.361 204.12C237.534 202.647 237.794 200.957 238.141 199.05C238.401 197.317 238.921 195.973 239.701 195.02C240.567 194.067 242.171 193.287 244.511 192.68C245.031 192.593 245.594 192.333 246.201 191.9C246.807 191.467 247.111 190.903 247.111 190.21C247.111 189.43 246.807 188.91 246.201 188.65C245.681 188.303 245.161 188.13 244.641 188.13C242.127 188.13 239.657 188.217 237.231 188.39C234.891 188.563 232.507 188.65 230.081 188.65C228.087 188.65 226.007 188.607 223.841 188.52C221.761 188.433 219.637 188.347 217.471 188.26C215.391 188.173 213.354 188.13 211.361 188.13C210.841 188.13 210.234 188.303 209.541 188.65C208.934 188.997 208.631 189.517 208.631 190.21C208.631 190.903 208.977 191.51 209.671 192.03C210.364 192.463 211.014 192.723 211.621 192.81C212.401 192.897 213.397 193.07 214.611 193.33C215.911 193.503 217.167 193.85 218.381 194.37C219.594 194.803 220.591 195.323 221.371 195.93C222.237 196.363 222.801 196.97 223.061 197.75C223.407 198.443 223.581 199.267 223.581 200.22C223.581 201 223.537 201.997 223.451 203.21C223.451 204.423 223.407 205.637 223.321 206.85V209.84C223.234 211.92 222.887 213.74 222.281 215.3C221.674 216.86 220.894 218.03 219.941 218.81C219.161 219.503 217.861 220.327 216.041 221.28C214.307 222.147 211.881 222.58 208.761 222.58C204.427 222.58 200.527 221.67 197.061 219.85C193.594 218.03 190.604 215.43 188.091 212.05C185.577 208.583 183.627 204.467 182.241 199.7C180.854 194.847 180.161 189.43 180.161 183.45C180.161 178.683 180.854 174.133 182.241 169.8C183.627 165.38 185.621 161.437 188.221 157.97C190.821 154.503 194.027 151.817 197.841 149.91C201.654 147.917 205.944 146.92 210.711 146.92C214.091 146.92 216.951 147.267 219.291 147.96C221.631 148.653 223.537 149.52 225.011 150.56C226.571 151.513 227.784 152.423 228.651 153.29C229.951 154.677 231.034 156.15 231.901 157.71C232.767 159.183 233.547 160.7 234.241 162.26C234.587 163.04 234.977 163.777 235.411 164.47C235.844 165.077 236.537 165.38 237.491 165.38C238.097 165.38 238.574 165.12 238.921 164.6C239.354 164.08 239.571 163.473 239.571 162.78C239.571 160.873 239.441 158.62 239.181 156.02C238.921 153.42 238.574 150.69 238.141 147.83C238.054 147.137 237.837 146.617 237.491 146.27C237.144 145.837 236.667 145.49 236.061 145.23C234.847 144.71 233.114 144.19 230.861 143.67C228.694 143.15 226.311 142.673 223.711 142.24C221.111 141.807 218.597 141.46 216.171 141.2C213.744 140.853 211.707 140.68 210.061 140.68C202.867 140.68 196.281 141.937 190.301 144.45C184.407 146.877 179.294 150.213 174.961 154.46C170.627 158.62 167.247 163.43 164.821 168.89C162.481 174.35 161.311 180.157 161.311 186.31C161.311 192.55 162.481 198.27 164.821 203.47C167.247 208.67 170.541 213.177 174.701 216.99C178.947 220.717 183.801 223.62 189.261 225.7ZM329.619 228.43C332.392 229.297 335.642 229.73 339.369 229.73C341.796 229.73 344.049 229.513 346.129 229.08C348.296 228.647 350.029 227.953 351.329 227C352.629 225.96 353.279 224.573 353.279 222.84C353.279 221.54 352.629 220.89 351.329 220.89C348.296 220.89 345.349 220.673 342.489 220.24C339.716 219.72 336.986 218.203 334.299 215.69C331.092 212.743 328.102 209.667 325.329 206.46C322.642 203.253 320.042 199.873 317.529 196.32C315.102 192.68 312.589 188.867 309.989 184.88C309.729 184.62 309.556 184.317 309.469 183.97C309.469 183.623 309.642 183.407 309.989 183.32C312.589 182.367 315.102 181.023 317.529 179.29C320.042 177.557 322.122 175.347 323.769 172.66C325.416 169.887 326.239 166.55 326.239 162.65C326.239 155.543 323.596 150.257 318.309 146.79C313.022 143.323 305.396 141.59 295.429 141.59C292.569 141.59 290.229 141.677 288.409 141.85C286.589 142.023 284.942 142.197 283.469 142.37C281.996 142.543 280.306 142.63 278.399 142.63C276.406 142.63 274.672 142.587 273.199 142.5C271.812 142.327 270.339 142.197 268.779 142.11C267.219 142.023 265.139 141.98 262.539 141.98C261.586 141.98 260.806 142.153 260.199 142.5C259.679 142.76 259.419 143.193 259.419 143.8C259.419 144.32 259.679 144.84 260.199 145.36C260.719 145.88 261.586 146.227 262.799 146.4C265.052 146.747 266.742 147.267 267.869 147.96C268.996 148.653 269.732 149.693 270.079 151.08C270.512 152.38 270.729 154.287 270.729 156.8V214.26C270.729 217.12 270.036 219.157 268.649 220.37C267.262 221.583 264.922 222.537 261.629 223.23C259.462 223.663 258.379 224.53 258.379 225.83C258.379 226.35 258.682 226.74 259.289 227C259.896 227.347 260.589 227.52 261.369 227.52C263.449 227.52 265.529 227.433 267.609 227.26C269.689 227.087 271.726 226.957 273.719 226.87C275.799 226.783 277.792 226.74 279.699 226.74C281.432 226.74 283.252 226.783 285.159 226.87C287.152 226.957 289.189 227.043 291.269 227.13C293.349 227.303 295.386 227.39 297.379 227.39C298.332 227.39 299.026 227.26 299.459 227C299.979 226.74 300.239 226.307 300.239 225.7C300.239 225.007 299.979 224.487 299.459 224.14C298.939 223.707 298.116 223.403 296.989 223.23C293.522 222.45 291.052 221.323 289.579 219.85C288.192 218.377 287.499 216.297 287.499 213.61V189.43C287.499 188.65 287.629 188 287.889 187.48C288.149 186.96 288.539 186.743 289.059 186.83C289.839 186.83 290.792 186.96 291.919 187.22C293.132 187.48 294.302 187.913 295.429 188.52C297.162 189.473 298.592 190.947 299.719 192.94C301.972 197.1 304.009 200.697 305.829 203.73C307.736 206.677 309.599 209.407 311.419 211.92C313.239 214.347 315.102 216.86 317.009 219.46C318.656 221.54 320.476 223.36 322.469 224.92C324.462 226.48 326.846 227.65 329.619 228.43ZM301.929 180.72C299.589 182.28 296.642 183.06 293.089 183.06C291.356 183.06 289.969 182.757 288.929 182.15C287.976 181.457 287.499 180.157 287.499 178.25V166.68C287.499 163.387 287.542 160.743 287.629 158.75C287.716 153.897 288.149 150.69 288.929 149.13C289.796 147.483 291.356 146.66 293.609 146.66C297.596 146.66 300.716 147.44 302.969 149C305.309 150.473 306.956 152.597 307.909 155.37C308.862 158.057 309.339 161.35 309.339 165.25C309.339 168.543 308.689 171.533 307.389 174.22C306.176 176.907 304.356 179.073 301.929 180.72Z" fill="white"/>
</svg>
